<?xml version="1.0" standalone="no"?>
<!DOCTYPE svg PUBLIC "-//W3C//DTD SVG 20010904//EN"
 "http://www.w3.org/TR/2001/REC-SVG-20010904/DTD/svg10.dtd">
<svg version="1.0" xmlns="http://www.w3.org/2000/svg"
 width="750.000000pt" height="730.000000pt" viewBox="0 0 750.000000 730.000000"
 preserveAspectRatio="xMidYMid meet">

<g transform="translate(0.000000,730.000000) scale(0.100000,-0.100000)"
fill="#000000" stroke="none">
<path d="M0 3650 l0 -3650 3750 0 3750 0 0 3650 0 3650 -3750 0 -3750 0 0
-3650z m4088 191 c1 -672 -1 -907 -9 -918 -9 -10 -37 -13 -118 -11 l-106 3 -3
35 c-5 63 -10 65 -49 25 -61 -63 -111 -80 -233 -79 -74 0 -115 5 -140 16 -136
63 -217 195 -238 393 -9 82 0 201 19 265 22 68 73 152 118 191 42 37 59 47
134 78 15 6 61 11 102 11 91 0 170 -27 221 -76 20 -19 41 -34 45 -34 5 0 9
227 9 504 l0 505 23 3 c12 2 67 1 122 -2 l100 -5 3 -904z m422 5 c0 -497 -3
-911 -6 -920 -8 -22 -215 -24 -233 -2 -9 11 -11 241 -10 913 1 494 3 901 6
906 2 4 58 7 124 7 l119 0 0 -904z m2271 133 c118 -40 147 -182 55 -268 -19
-18 -40 -25 -78 -28 -176 -13 -236 205 -78 285 51 25 55 26 101 11z m-4591
-121 c155 -47 261 -150 307 -298 22 -73 23 -255 1 -326 -46 -146 -133 -240
-273 -294 -88 -34 -263 -34 -355 -1 -145 53 -240 156 -279 306 -19 72 -14 254
10 326 68 206 247 318 484 302 39 -3 86 -9 105 -15z m-955 -21 c22 -7 54 -20
71 -29 45 -24 108 -100 122 -145 9 -31 16 -453 12 -736 0 -16 -10 -17 -117
-15 l-118 3 -5 320 c-6 359 -6 362 -75 395 -53 26 -104 25 -160 -1 -100 -47
-107 -76 -114 -429 l-6 -285 -115 0 -115 0 0 455 0 455 115 0 115 0 5 -58 5
-59 23 31 c25 35 89 80 136 97 43 16 173 16 221 1z m1943 -109 l3 -118 -59 0
c-112 0 -197 -49 -223 -128 -8 -23 -15 -136 -18 -302 l-6 -265 -115 0 -115 0
0 455 0 455 115 0 115 0 3 -62 c2 -35 7 -63 12 -63 6 0 10 4 10 9 0 17 83 102
119 121 26 14 52 19 96 17 l60 -2 3 -117z m1762 -218 c5 -345 7 -356 67 -395
37 -24 135 -25 180 -2 32 17 72 63 89 102 4 11 11 153 14 315 l5 295 115 0
115 0 0 -455 0 -455 -104 -3 c-67 -2 -108 1 -117 9 -8 7 -14 30 -14 57 l0 45
-49 -46 c-72 -67 -108 -80 -226 -81 -135 -1 -205 29 -260 112 -51 77 -55 110
-55 480 l0 343 118 -3 117 -3 5 -315z m1065 196 c39 -66 76 -121 82 -123 6 -2
43 52 83 122 l71 125 134 0 c74 0 136 -4 139 -8 2 -4 -60 -104 -140 -222 -79
-117 -144 -216 -144 -220 0 -3 67 -107 150 -230 82 -123 147 -227 144 -232 -6
-9 -254 -11 -278 -2 -9 3 -34 38 -56 78 -107 190 -115 198 -136 154 -21 -45
-116 -203 -131 -220 -14 -15 -35 -18 -144 -18 -81 0 -130 4 -134 11 -4 6 59
109 140 229 101 149 146 224 143 237 -3 11 -67 110 -142 220 -75 111 -136 206
-136 212 0 8 42 11 142 9 l142 -3 71 -119z"/>
<path d="M3575 3633 c-76 -20 -125 -107 -133 -234 -6 -104 9 -171 49 -233 40
-60 84 -80 166 -73 137 11 198 104 192 288 -3 78 -9 103 -32 151 -38 78 -72
100 -156 104 -36 1 -75 0 -86 -3z"/>
<path d="M6679 3937 c-60 -41 -77 -113 -39 -174 23 -39 52 -55 101 -57 49 -1
85 20 104 59 33 70 10 151 -51 180 -44 21 -75 19 -115 -8z m110 -33 c3 -3 6
-38 6 -79 1 -53 -2 -75 -10 -75 -7 0 -15 14 -19 31 -5 25 -10 30 -28 27 -17
-2 -24 -11 -26 -30 -3 -28 -21 -39 -23 -15 -5 44 4 143 14 150 11 7 77 0 86
-9z"/>
<path d="M6714 3875 c-4 -9 -2 -21 4 -27 16 -16 47 -5 47 17 0 26 -42 34 -51
10z"/>
<path d="M1942 3648 c-57 -27 -89 -77 -108 -167 -30 -145 13 -288 101 -338 31
-18 56 -23 110 -23 82 0 136 25 172 79 67 99 68 282 3 385 -52 82 -181 111
-278 64z"/>
</g>
</svg>
